<?xml version="1.0" encoding="utf-8"?>
<?xml-stylesheet type="text/xsl" href="rss1.xsl"?>
<rss version="2.0" xmlns:atom="http://www.w3.org/2005/Atom" xmlns:content="http://purl.org/rss/1.0/modules/content/" xmlns:dc="http://purl.org/dc/elements/1.1/" xmlns:media="http://search.yahoo.com/mrss/">
<channel>
 <title>Getty</title>
 <link>http://www.gettyimg.com/</link>
 <atom:link href="http://www.gettyimg.com/" rel="self" type="application/rss+xml" />

 
                <item>
                <title><![CDATA[【Cinema Center】SERIES - Marvel's Spidey and His Amazing Friends - Season 1 - 1080p Disney+ WEB-DL DDP5.1 H.264-LAZY]]></title>
                <link><![CDATA[https://sharemania.us/threads/marvels-spidey-and-his-amazing-friends-season-1-1080p-disney-web-dl-ddp5-1-h-264-lazy.235496/]]></link>
                <description><![CDATA[<article>
<blockquote class="messageText SelectQuoteContainer ugc baseHtml">
Marvel's Spidey and His Amazing Friends:<img src="https://i.imgur.com/zIXOYps.jpg" class="bbCodeImage LbImage" alt="[​IMG]" data-url="https://i.imgur.com/zIXOYps.jpg" style=""><br>
<br>
<div class="bbCodeBlock bbCodeQuote">
<aside>
<blockquote class="quoteContainer"><div class="quote"><i><b>Synopsis:</b></i><br>
Follow Peter Parker, Miles Morales and Gwen Stacy, as they form Team Spidey and embark on heroic adventures to protect their community.</div><div class="quoteExpand">Click to expand...</div></blockquote>
</aside>
</div>
<div class="ToggleTriggerAnchor bbCodeSpoilerContainer">
<button type="button" class="button bbCodeSpoilerButton ToggleTrigger Tooltip JsOnly" data-target="> .SpoilerTarget"><span>Spoiler: <span class="SpoilerTitle">MediaInfo</span></span></button>
<div class="SpoilerTarget bbCodeSpoilerText">General<br>
Unique ID : 119054368915724229718188002347183427022 (0x59910993BBE6E7D48060D807AC66CDCE)<br>
Complete name : Marvels.Spidey.and.His.Amazing.Friends.S01E01E02.Spidey.to.the.Power.of.Three.-.Panther.Patience.1080p.DSNP.WEB-DL.DDP5.1.H.264-LAZY.mkv<br>
Format : Matroska<br>
Format version : Version 4<br>
File size : 1.30 GiB<br>
Duration : 24 min 5 s<br>
Overall bit rate mode : Variable<br>
Overall bit rate : 7 700 kb/s<br>
Frame rate : 23.976 FPS<br>
Encoded date : 2024-01-08 17:00:21 UTC<br>
Writing application : mkvmerge v82.0 ('I'm The President') 64-bit<br>
Writing library : libebml v1.4.5 + libmatroska v1.7.1<br>
<br>
Video<br>
ID : 1<br>
Format : AVC<br>
Format/Info : Advanced Video Codec<br>
Format profile : High@L4<br>
Format settings : CABAC / 4 Ref Frames<br>
Format settings, CABAC : Yes<br>
Format settings, Reference frames : 4 frames<br>
Codec ID : V_MPEG4/ISO/AVC<br>
Duration : 24 min 5 s<br>
Bit rate mode : Variable<br>
Bit rate : 7 440 kb/s<br>
Maximum bit rate : 12.7 Mb/s<br>
Width : 1 920 pixels<br>
Height : 1 080 pixels<br>
Display aspect ratio : 16:9<br>
Frame rate mode : Constant<br>
Frame rate : 23.976 (24000/1001) FPS<br>
Color space : YUV<br>
Chroma subsampling : 4:2:0<br>
Bit depth : 8 bits<br>
Scan type : Progressive<br>
Bits/(Pixel*Frame) : 0.150<br>
Stream size : 1.25 GiB (97%)<br>
Default : Yes<br>
Forced : No<br>
Color range : Limited<br>
Color primaries : BT.709<br>
Transfer characteristics : BT.709<br>
Matrix coefficients : BT.709<br>
<br>
Audio<br>
ID : 2<br>
Format : E-AC-3<br>
Format/Info : Enhanced AC-3<br>
Commercial name : Dolby Digital Plus<br>
Codec ID : A_EAC3<br>
Duration : 24 min 5 s<br>
Bit rate mode : Constant<br>
Bit rate : 256 kb/s<br>
Channel(s) : 6 channels<br>
Channel layout : L R C LFE Ls Rs<br>
Sampling rate : 48.0 kHz<br>
Frame rate : 31.250 FPS (1536 SPF)<br>
Compression mode : Lossy<br>
Stream size : 44.1 MiB (3%)<br>
Language : English<br>
Service kind : Complete Main<br>
Default : Yes<br>
Forced : No<br>
<br>
Text #1<br>
ID : 3<br>
Format : UTF-8<br>
Codec ID : S_TEXT/UTF8<br>
Codec ID/Info : UTF-8 Plain Text<br>
Duration : 23 min 30 s<br>
Bit rate : 95 b/s<br>
Frame rate : 0.368 FPS<br>
Count of elements : 519<br>
Stream size : 16.4 KiB (0%)<br>
Title : SDH<br>
Language : English<br>
Default : No<br>
Forced : No<br>
<br>
Text #2<br>
ID : 4<br>
Format : UTF-8<br>
Codec ID : S_TEXT/UTF8<br>
Codec ID/Info : UTF-8 Plain Text<br>
Duration : 22 min 33 s<br>
Bit rate : 69 b/s<br>
Frame rate : 0.210 FPS<br>
Count of elements : 284<br>
Stream size : 11.4 KiB (0%)<br>
Language : Danish<br>
Default : No<br>
Forced : No<br>
<br>
Text #3<br>
ID : 5<br>
Format : UTF-8<br>
Codec ID : S_TEXT/UTF8<br>
Codec ID/Info : UTF-8 Plain Text<br>
Duration : 22 min 33 s<br>
Bit rate : 73 b/s<br>
Frame rate : 0.231 FPS<br>
Count of elements : 312<br>
Stream size : 12.1 KiB (0%)<br>
Language : German<br>
Default : No<br>
Forced : No<br>
<br>
Text #4<br>
ID : 6<br>
Format : UTF-8<br>
Codec ID : S_TEXT/UTF8<br>
Codec ID/Info : UTF-8 Plain Text<br>
Duration : 23 min 52 s<br>
Bit rate : 69 b/s<br>
Frame rate : 0.262 FPS<br>
Count of elements : 375<br>
Stream size : 12.2 KiB (0%)<br>
Title : Latin American<br>
Language : Spanish<br>
Default : No<br>
Forced : No<br>
<br>
Text #5<br>
ID : 7<br>
Format : UTF-8<br>
Codec ID : S_TEXT/UTF8<br>
Codec ID/Info : UTF-8 Plain Text<br>
Duration : 23 min 23 s<br>
Bit rate : 85 b/s<br>
Frame rate : 0.265 FPS<br>
Count of elements : 372<br>
Stream size : 14.7 KiB (0%)<br>
Title : European (SDH)<br>
Language : Spanish<br>
Default : No<br>
Forced : No<br>
<br>
Text #6<br>
ID : 8<br>
Format : UTF-8<br>
Codec ID : S_TEXT/UTF8<br>
Codec ID/Info : UTF-8 Plain Text<br>
Duration : 22 min 53 s<br>
Bit rate : 67 b/s<br>
Frame rate : 0.208 FPS<br>
Count of elements : 286<br>
Stream size : 11.3 KiB (0%)<br>
Language : Finnish<br>
Default : No<br>
Forced : No<br>
<br>
Text #7<br>
ID : 9<br>
Format : UTF-8<br>
Codec ID : S_TEXT/UTF8<br>
Codec ID/Info : UTF-8 Plain Text<br>
Duration : 22 min 59 s<br>
Bit rate : 74 b/s<br>
Frame rate : 0.269 FPS<br>
Count of elements : 371<br>
Stream size : 12.5 KiB (0%)<br>
Language : French<br>
Default : No<br>
Forced : No<br>
<br>
Text #8<br>
ID : 10<br>
Format : UTF-8<br>
Codec ID : S_TEXT/UTF8<br>
Codec ID/Info : UTF-8 Plain Text<br>
Duration : 22 min 31 s<br>
Bit rate : 69 b/s<br>
Frame rate : 0.210 FPS<br>
Count of elements : 284<br>
Stream size : 11.5 KiB (0%)<br>
Language : Italian<br>
Default : No<br>
Forced : No<br>
<br>
Text #9<br>
ID : 11<br>
Format : UTF-8<br>
Codec ID : S_TEXT/UTF8<br>
Codec ID/Info : UTF-8 Plain Text<br>
Duration : 23 min 53 s<br>
Bit rate : 80 b/s<br>
Frame rate : 0.270 FPS<br>
Count of elements : 387<br>
Stream size : 14.1 KiB (0%)<br>
Language : Japanese<br>
Default : No<br>
Forced : No<br>
<br>
Text #10<br>
ID : 12<br>
Format : UTF-8<br>
Codec ID : S_TEXT/UTF8<br>
Codec ID/Info : UTF-8 Plain Text<br>
Duration : 22 min 31 s<br>
Bit rate : 63 b/s<br>
Frame rate : 0.209 FPS<br>
Count of elements : 282<br>
Stream size : 10.4 KiB (0%)<br>
Language : Dutch<br>
Default : No<br>
Forced : No<br>
<br>
Text #11<br>
ID : 13<br>
Format : UTF-8<br>
Codec ID : S_TEXT/UTF8<br>
Codec ID/Info : UTF-8 Plain Text<br>
Duration : 22 min 33 s<br>
Bit rate : 56 b/s<br>
Frame rate : 0.186 FPS<br>
Count of elements : 252<br>
Stream size : 9.36 KiB (0%)<br>
Language : Norwegian<br>
Default : No<br>
Forced : No<br>
<br>
Text #12<br>
ID : 14<br>
Format : UTF-8<br>
Codec ID : S_TEXT/UTF8<br>
Codec ID/Info : UTF-8 Plain Text<br>
Duration : 22 min 31 s<br>
Bit rate : 64 b/s<br>
Frame rate : 0.223 FPS<br>
Count of elements : 301<br>
Stream size : 10.6 KiB (0%)<br>
Language : Polish<br>
Default : No<br>
Forced : No<br>
<br>
Text #13<br>
ID : 15<br>
Format : UTF-8<br>
Codec ID : S_TEXT/UTF8<br>
Codec ID/Info : UTF-8 Plain Text<br>
Duration : 23 min 52 s<br>
Bit rate : 66 b/s<br>
Frame rate : 0.246 FPS<br>
Count of elements : 353<br>
Stream size : 11.6 KiB (0%)<br>
Title : Brazilian<br>
Language : Portuguese<br>
Default : No<br>
Forced : No<br>
<br>
Text #14<br>
ID : 16<br>
Format : UTF-8<br>
Codec ID : S_TEXT/UTF8<br>
Codec ID/Info : UTF-8 Plain Text<br>
Duration : 23 min 31 s<br>
Bit rate : 80 b/s<br>
Frame rate : 0.279 FPS<br>
Count of elements : 394<br>
Stream size : 13.8 KiB (0%)<br>
Title : European (SDH)<br>
Language : Portuguese<br>
Default : No<br>
Forced : No<br>
<br>
Text #15<br>
ID : 17<br>
Format : UTF-8<br>
Codec ID : S_TEXT/UTF8<br>
Codec ID/Info : UTF-8 Plain Text<br>
Duration : 22 min 31 s<br>
Bit rate : 74 b/s<br>
Frame rate : 0.219 FPS<br>
Count of elements : 296<br>
Stream size : 12.3 KiB (0%)<br>
Language : Romanian<br>
Default : No<br>
Forced : No<br>
<br>
Text #16<br>
ID : 18<br>
Format : UTF-8<br>
Codec ID : S_TEXT/UTF8<br>
Codec ID/Info : UTF-8 Plain Text<br>
Duration : 22 min 33 s<br>
Bit rate : 69 b/s<br>
Frame rate : 0.219 FPS<br>
Count of elements : 296<br>
Stream size : 11.5 KiB (0%)<br>
Language : Swedish<br>
Default : No<br>
Forced : No<br>
<br>
Text #17<br>
ID : 19<br>
Format : UTF-8<br>
Codec ID : S_TEXT/UTF8<br>
Codec ID/Info : UTF-8 Plain Text<br>
Duration : 22 min 31 s<br>
Bit rate : 74 b/s<br>
Frame rate : 0.230 FPS<br>
Count of elements : 311<br>
Stream size : 12.3 KiB (0%)<br>
Language : Turkish<br>
Default : No<br>
Forced : No<br>
<br>
Text #18<br>
ID : 20<br>
Format : UTF-8<br>
Codec ID : S_TEXT/UTF8<br>
Codec ID/Info : UTF-8 Plain Text<br>
Duration : 23 min 52 s<br>
Bit rate : 76 b/s<br>
Frame rate : 0.274 FPS<br>
Count of elements : 392<br>
Stream size : 13.5 KiB (0%)<br>
Title : Traditional, Hong Kong<br>
Language : Chinese<br>
Default : No<br>
Forced : No<br>
<br>
Text #19<br>
ID : 21<br>
Format : UTF-8<br>
Codec ID : S_TEXT/UTF8<br>
Codec ID/Info : UTF-8 Plain Text<br>
Duration : 23 min 52 s<br>
Bit rate : 77 b/s<br>
Frame rate : 0.274 FPS<br>
Count of elements : 392<br>
Stream size : 13.6 KiB (0%)<br>
Title : Simplified<br>
Language : Chinese<br>
Default : No<br>
Forced : No<br>
<br>
Text #20<br>
ID : 22<br>
Format : UTF-8<br>
Codec ID : S_TEXT/UTF8<br>
Codec ID/Info : UTF-8 Plain Text<br>
Duration : 23 min 23 s<br>
Bit rate : 80 b/s<br>
Frame rate : 0.279 FPS<br>
Count of elements : 391<br>
Stream size : 13.8 KiB (0%)<br>
Title : Traditional<br>
Language : Chinese<br>
Default : No<br>
Forced : No<br>
<br>
Menu<br>
00:00:04.004 : en:Intro<br>
00:01:06.525 : en:Scene 1<br>
00:12:21.992 : en:Scene 2<br>
00:23:37.417 : en:Credits</div>
</div><br>
Screenshots:<br>
<img src="https://i.imgur.com/5dRrAgT.jpg" class="bbCodeImage LbImage" alt="[​IMG]" data-url="https://i.imgur.com/5dRrAgT.jpg" style=""> <br>
<div class="bbCodeBlock bbCodeVfcHH HiddenContent">
<div class="attribution type">Hidden Content:</div>
<blockquote>You must either reply or click 'Like' to see the hidden information contained here.</blockquote>
</div>
<div class="messageTextEndMarker">&nbsp;</div>
</blockquote>
</article>]]></description>
                <author><![CDATA[LazyRips]]></author>
                </item>

                
                <item>
                <title><![CDATA[【Cinema Center】SERIES - Intertwined - Season 2 - 2160p Disney+ WEB-DL DDP5.1 DV HDR H.265-LAZY]]></title>
                <link><![CDATA[https://sharemania.us/threads/intertwined-season-2-2160p-disney-web-dl-ddp5-1-dv-hdr-h-265-lazy.235495/]]></link>
                <description><![CDATA[<article>
<blockquote class="messageText SelectQuoteContainer ugc baseHtml">
Intertwined:<img src="http:////cdn2.broadcasthe.net/tvdb/banners/v4/series/410659/banners/63b343b09c4a8.jpg" class="bbCodeImage LbImage" alt="[​IMG]" data-url="http:////cdn2.broadcasthe.net/tvdb/banners/v4/series/410659/banners/63b343b09c4a8.jpg" style=""> <br>
<br>
<div class="bbCodeBlock bbCodeQuote">
<aside>
<blockquote class="quoteContainer"><div class="quote"><i><b>Synopsis:</b></i><br>
Allegra, a girl with a passion for musical comedy, embarks on a unique journey through time to unite her family and fulfill her professional dream.</div><div class="quoteExpand">Click to expand...</div></blockquote>
</aside>
</div>
<div class="ToggleTriggerAnchor bbCodeSpoilerContainer">
<button type="button" class="button bbCodeSpoilerButton ToggleTrigger Tooltip JsOnly" data-target="> .SpoilerTarget"><span>Spoiler: <span class="SpoilerTitle">MediaInfo</span></span></button>
<div class="SpoilerTarget bbCodeSpoilerText">General<br>
Unique ID : 245067328677314689738154748615722809991 (0xB85E402BD903549E3D9689198A8C3A87)<br>
Complete name : Intertwined.S02E01.Challenge.2160p.DSNP.WEB-DL.DDP5.1.DV.HDR.H.265-LAZY.mkv<br>
Format : Matroska<br>
Format version : Version 4<br>
File size : 4.90 GiB<br>
Duration : 49 min 11 s<br>
Overall bit rate : 14.3 Mb/s<br>
Frame rate : 23.976 FPS<br>
Encoded date : 2024-01-06 23:42:38 UTC<br>
Writing application : mkvmerge v82.0 ('I'm The President') 64-bit<br>
Writing library : libebml v1.4.5 + libmatroska v1.7.1<br>
<br>
Video<br>
ID : 1<br>
Format : HEVC<br>
Format/Info : High Efficiency Video Coding<br>
Format profile : Main 10@L5@High<br>
HDR format : Dolby Vision, Version 1.0, dvhe.08.06, BL+RPU, HDR10 compatible / SMPTE ST 2086, HDR10 compatible<br>
Codec ID : V_MPEGH/ISO/HEVC<br>
Duration : 49 min 11 s<br>
Bit rate : 13.8 Mb/s<br>
Width : 3 840 pixels<br>
Height : 2 160 pixels<br>
Display aspect ratio : 16:9<br>
Frame rate mode : Constant<br>
Frame rate : 23.976 (24000/1001) FPS<br>
Color space : YUV<br>
Chroma subsampling : 4:2:0<br>
Bit depth : 10 bits<br>
Bits/(Pixel*Frame) : 0.069<br>
Stream size : 4.73 GiB (96%)<br>
Default : Yes<br>
Forced : No<br>
Color range : Limited<br>
Color primaries : BT.2020<br>
Transfer characteristics : PQ<br>
Matrix coefficients : BT.2020 non-constant<br>
Mastering display color primaries : BT.2020<br>
Mastering display luminance : min: 0.0001 cd/m2, max: 1000 cd/m2<br>
<br>
Audio #1<br>
ID : 2<br>
Format : E-AC-3<br>
Format/Info : Enhanced AC-3<br>
Commercial name : Dolby Digital Plus<br>
Codec ID : A_EAC3<br>
Duration : 49 min 11 s<br>
Bit rate mode : Constant<br>
Bit rate : 256 kb/s<br>
Channel(s) : 6 channels<br>
Channel layout : L R C LFE Ls Rs<br>
Sampling rate : 48.0 kHz<br>
Frame rate : 31.250 FPS (1536 SPF)<br>
Compression mode : Lossy<br>
Stream size : 90.1 MiB (2%)<br>
Language : English<br>
Service kind : Complete Main<br>
Default : Yes<br>
Forced : No<br>
<br>
Audio #2<br>
ID : 3<br>
Format : E-AC-3<br>
Format/Info : Enhanced AC-3<br>
Commercial name : Dolby Digital Plus<br>
Codec ID : A_EAC3<br>
Duration : 49 min 11 s<br>
Bit rate mode : Constant<br>
Bit rate : 256 kb/s<br>
Channel(s) : 6 channels<br>
Channel layout : L R C LFE Ls Rs<br>
Sampling rate : 48.0 kHz<br>
Frame rate : 31.250 FPS (1536 SPF)<br>
Compression mode : Lossy<br>
Stream size : 90.1 MiB (2%)<br>
Title : Latin American<br>
Language : Spanish<br>
Service kind : Complete Main<br>
Default : No<br>
Forced : No<br>
<br>
Text #1<br>
ID : 4<br>
Format : UTF-8<br>
Codec ID : S_TEXT/UTF8<br>
Codec ID/Info : UTF-8 Plain Text<br>
Duration : 45 min 12 s<br>
Bit rate : 68 b/s<br>
Frame rate : 0.247 FPS<br>
Count of elements : 670<br>
Stream size : 22.8 KiB (0%)<br>
Title : SDH<br>
Language : English<br>
Default : No<br>
Forced : No<br>
<br>
Text #2<br>
ID : 5<br>
Format : UTF-8<br>
Codec ID : S_TEXT/UTF8<br>
Codec ID/Info : UTF-8 Plain Text<br>
Duration : 49 min 6 s<br>
Bit rate : 45 b/s<br>
Frame rate : 0.177 FPS<br>
Count of elements : 521<br>
Stream size : 16.4 KiB (0%)<br>
Language : Czech<br>
Default : No<br>
Forced : No<br>
<br>
Text #3<br>
ID : 6<br>
Format : UTF-8<br>
Codec ID : S_TEXT/UTF8<br>
Codec ID/Info : UTF-8 Plain Text<br>
Duration : 49 min 6 s<br>
Bit rate : 50 b/s<br>
Frame rate : 0.187 FPS<br>
Count of elements : 551<br>
Stream size : 18.2 KiB (0%)<br>
Language : Danish<br>
Default : No<br>
Forced : No<br>
<br>
Text #4<br>
ID : 7<br>
Format : UTF-8<br>
Codec ID : S_TEXT/UTF8<br>
Codec ID/Info : UTF-8 Plain Text<br>
Duration : 49 min 6 s<br>
Bit rate : 49 b/s<br>
Frame rate : 0.182 FPS<br>
Count of elements : 537<br>
Stream size : 17.9 KiB (0%)<br>
Language : German<br>
Default : No<br>
Forced : No<br>
<br>
Text #5<br>
ID : 8<br>
Format : UTF-8<br>
Codec ID : S_TEXT/UTF8<br>
Codec ID/Info : UTF-8 Plain Text<br>
Duration : 49 min 6 s<br>
Bit rate : 83 b/s<br>
Frame rate : 0.186 FPS<br>
Count of elements : 547<br>
Stream size : 30.2 KiB (0%)<br>
Language : Greek<br>
Default : No<br>
Forced : No<br>
<br>
Text #6<br>
ID : 9<br>
Format : UTF-8<br>
Codec ID : S_TEXT/UTF8<br>
Codec ID/Info : UTF-8 Plain Text<br>
Duration : 45 min 8 s<br>
Bit rate : 69 b/s<br>
Frame rate : 0.240 FPS<br>
Count of elements : 649<br>
Stream size : 22.8 KiB (0%)<br>
Title : Latin American (SDH)<br>
Language : Spanish<br>
Default : No<br>
Forced : No<br>
<br>
Text #7<br>
ID : 10<br>
Format : UTF-8<br>
Codec ID : S_TEXT/UTF8<br>
Codec ID/Info : UTF-8 Plain Text<br>
Duration : 49 min 1 s<br>
Bit rate : 49 b/s<br>
Frame rate : 0.183 FPS<br>
Count of elements : 539<br>
Stream size : 17.9 KiB (0%)<br>
Title : European<br>
Language : Spanish<br>
Default : No<br>
Forced : No<br>
<br>
Text #8<br>
ID : 11<br>
Format : UTF-8<br>
Codec ID : S_TEXT/UTF8<br>
Codec ID/Info : UTF-8 Plain Text<br>
Duration : 49 min 6 s<br>
Bit rate : 47 b/s<br>
Frame rate : 0.171 FPS<br>
Count of elements : 503<br>
Stream size : 16.9 KiB (0%)<br>
Language : Finnish<br>
Default : No<br>
Forced : No<br>
<br>
Text #9<br>
ID : 12<br>
Format : UTF-8<br>
Codec ID : S_TEXT/UTF8<br>
Codec ID/Info : UTF-8 Plain Text<br>
Duration : 49 min 6 s<br>
Bit rate : 55 b/s<br>
Frame rate : 0.185 FPS<br>
Count of elements : 545<br>
Stream size : 20.0 KiB (0%)<br>
Language : French<br>
Default : No<br>
Forced : No<br>
<br>
Text #10<br>
ID : 13<br>
Format : UTF-8<br>
Codec ID : S_TEXT/UTF8<br>
Codec ID/Info : UTF-8 Plain Text<br>
Duration : 49 min 6 s<br>
Bit rate : 49 b/s<br>
Frame rate : 0.185 FPS<br>
Count of elements : 544<br>
Stream size : 17.9 KiB (0%)<br>
Language : Hungarian<br>
Default : No<br>
Forced : No<br>
<br>
Text #11<br>
ID : 14<br>
Format : UTF-8<br>
Codec ID : S_TEXT/UTF8<br>
Codec ID/Info : UTF-8 Plain Text<br>
Duration : 49 min 6 s<br>
Bit rate : 45 b/s<br>
Frame rate : 0.184 FPS<br>
Count of elements : 542<br>
Stream size : 16.3 KiB (0%)<br>
Language : Italian<br>
Default : No<br>
Forced : No<br>
<br>
Text #12<br>
ID : 15<br>
Format : UTF-8<br>
Codec ID : S_TEXT/UTF8<br>
Codec ID/Info : UTF-8 Plain Text<br>
Duration : 49 min 6 s<br>
Bit rate : 45 b/s<br>
Frame rate : 0.206 FPS<br>
Count of elements : 606<br>
Stream size : 16.3 KiB (0%)<br>
Language : Japanese<br>
Default : No<br>
Forced : No<br>
<br>
Text #13<br>
ID : 16<br>
Format : UTF-8<br>
Codec ID : S_TEXT/UTF8<br>
Codec ID/Info : UTF-8 Plain Text<br>
Duration : 49 min 6 s<br>
Bit rate : 57 b/s<br>
Frame rate : 0.188 FPS<br>
Count of elements : 555<br>
Stream size : 20.7 KiB (0%)<br>
Language : Korean<br>
Default : No<br>
Forced : No<br>
<br>
Text #14<br>
ID : 17<br>
Format : UTF-8<br>
Codec ID : S_TEXT/UTF8<br>
Codec ID/Info : UTF-8 Plain Text<br>
Duration : 49 min 6 s<br>
Bit rate : 45 b/s<br>
Frame rate : 0.167 FPS<br>
Count of elements : 493<br>
Stream size : 16.3 KiB (0%)<br>
Language : Dutch<br>
Default : No<br>
Forced : No<br>
<br>
Text #15<br>
ID : 18<br>
Format : UTF-8<br>
Codec ID : S_TEXT/UTF8<br>
Codec ID/Info : UTF-8 Plain Text<br>
Duration : 49 min 6 s<br>
Bit rate : 45 b/s<br>
Frame rate : 0.176 FPS<br>
Count of elements : 519<br>
Stream size : 16.5 KiB (0%)<br>
Language : Norwegian<br>
Default : No<br>
Forced : No<br>
<br>
Text #16<br>
ID : 19<br>
Format : UTF-8<br>
Codec ID : S_TEXT/UTF8<br>
Codec ID/Info : UTF-8 Plain Text<br>
Duration : 49 min 6 s<br>
Bit rate : 44 b/s<br>
Frame rate : 0.184 FPS<br>
Count of elements : 543<br>
Stream size : 16.1 KiB (0%)<br>
Language : Polish<br>
Default : No<br>
Forced : No<br>
<br>
Text #17<br>
ID : 20<br>
Format : UTF-8<br>
Codec ID : S_TEXT/UTF8<br>
Codec ID/Info : UTF-8 Plain Text<br>
Duration : 49 min 6 s<br>
Bit rate : 51 b/s<br>
Frame rate : 0.180 FPS<br>
Count of elements : 531<br>
Stream size : 18.4 KiB (0%)<br>
Title : Brazilian<br>
Language : Portuguese<br>
Default : No<br>
Forced : No<br>
<br>
Text #18<br>
ID : 21<br>
Format : UTF-8<br>
Codec ID : S_TEXT/UTF8<br>
Codec ID/Info : UTF-8 Plain Text<br>
Duration : 49 min 6 s<br>
Bit rate : 51 b/s<br>
Frame rate : 0.186 FPS<br>
Count of elements : 547<br>
Stream size : 18.5 KiB (0%)<br>
Title : European<br>
Language : Portuguese<br>
Default : No<br>
Forced : No<br>
<br>
Text #19<br>
ID : 22<br>
Format : UTF-8<br>
Codec ID : S_TEXT/UTF8<br>
Codec ID/Info : UTF-8 Plain Text<br>
Duration : 49 min 6 s<br>
Bit rate : 47 b/s<br>
Frame rate : 0.163 FPS<br>
Count of elements : 480<br>
Stream size : 17.0 KiB (0%)<br>
Language : Romanian<br>
Default : No<br>
Forced : No<br>
<br>
Text #20<br>
ID : 23<br>
Format : UTF-8<br>
Codec ID : S_TEXT/UTF8<br>
Codec ID/Info : UTF-8 Plain Text<br>
Duration : 49 min 6 s<br>
Bit rate : 47 b/s<br>
Frame rate : 0.186 FPS<br>
Count of elements : 548<br>
Stream size : 17.2 KiB (0%)<br>
Language : Slovak<br>
Default : No<br>
Forced : No<br>
<br>
Text #21<br>
ID : 24<br>
Format : UTF-8<br>
Codec ID : S_TEXT/UTF8<br>
Codec ID/Info : UTF-8 Plain Text<br>
Duration : 49 min 6 s<br>
Bit rate : 52 b/s<br>
Frame rate : 0.179 FPS<br>
Count of elements : 526<br>
Stream size : 18.8 KiB (0%)<br>
Language : Swedish<br>
Default : No<br>
Forced : No<br>
<br>
Text #22<br>
ID : 25<br>
Format : UTF-8<br>
Codec ID : S_TEXT/UTF8<br>
Codec ID/Info : UTF-8 Plain Text<br>
Duration : 49 min 6 s<br>
Bit rate : 52 b/s<br>
Frame rate : 0.181 FPS<br>
Count of elements : 533<br>
Stream size : 18.9 KiB (0%)<br>
Language : Turkish<br>
Default : No<br>
Forced : No<br>
<br>
Text #23<br>
ID : 26<br>
Format : UTF-8<br>
Codec ID : S_TEXT/UTF8<br>
Codec ID/Info : UTF-8 Plain Text<br>
Duration : 49 min 6 s<br>
Bit rate : 46 b/s<br>
Frame rate : 0.189 FPS<br>
Count of elements : 557<br>
Stream size : 16.8 KiB (0%)<br>
Title : Traditional<br>
Language : Chinese<br>
Default : No<br>
Forced : No<br>
<br>
Menu<br>
00:00:04.004 : en:Recap<br>
00:03:50.564 : en:Scene 1<br>
00:11:20.722 : en:Intro<br>
00:11:33.026 : en:Scene 2<br>
00:15:25.175 : en:Scene 3<br>
00:29:00.574 : en:Scene 4<br>
00:41:48.592 : en:Scene 5<br>
00:45:34.276 : en:Credits</div>
</div><br>
Screenshots:<br>
<img src="https://i.imgur.com/rzer03R.jpg" class="bbCodeImage LbImage" alt="[​IMG]" data-url="https://i.imgur.com/rzer03R.jpg" style=""> <br>
<div class="bbCodeBlock bbCodeVfcHH HiddenContent">
<div class="attribution type">Hidden Content:</div>
<blockquote>You must either reply or click 'Like' to see the hidden information contained here.</blockquote>
</div>
<div class="messageTextEndMarker">&nbsp;</div>
</blockquote>
</article>]]></description>
                <author><![CDATA[LazyRips]]></author>
                </item>

                </channel></rss>